<svg xmlns="http://www.w3.org/2000/svg" xmlns:xlink="http://www.w3.org/1999/xlink" version="1.1" width="256" height="256" viewBox="0 0 256 256" xml:space="preserve">

<defs>
</defs>
<g style="stroke: none; stroke-width: 0; stroke-dasharray: none; stroke-linecap: butt; stroke-linejoin: miter; stroke-miterlimit: 10; fill: none; fill-rule: nonzero; opacity: 1;" transform="translate(1.4065934065934016 1.4065934065934016) scale(2.81 2.81)" >
	<circle cx="45" cy="45" r="45" style="stroke: none; stroke-width: 1; stroke-dasharray: none; stroke-linecap: butt; stroke-linejoin: miter; stroke-miterlimit: 10; fill: rgb(0,161,173); fill-rule: nonzero; opacity: 1;" transform="  matrix(1 0 0 1 0 0) "/>
	<path d="M 71.645 58.936 c 0.135 -14.81 -1.035 -30.956 -9.897 -40.005 c -4.084 -4.169 -9.434 -6.367 -15.91 -6.541 l 0.11 -0.104 l -0.267 0.101 c -0.452 -0.01 -0.911 -0.01 -1.361 0 l -0.262 -0.099 l 0.108 0.103 c -6.478 0.173 -11.828 2.371 -15.912 6.541 c -8.863 9.05 -10.033 25.195 -9.899 40.006 c -0.597 0.652 -0.97 1.489 -1.044 2.384 h -2.06 v 17.442 c 3.661 3.227 7.781 5.803 12.185 7.666 V 61.32 h -2.061 c -0.074 -0.879 -0.438 -1.707 -1.02 -2.357 c -0.106 -11.435 0.601 -24.879 5.946 -33.03 c -0.711 2.459 -1.091 5.109 -1.091 7.826 c 0 11.789 7.083 21.379 15.791 21.379 s 15.79 -9.591 15.79 -21.379 c 0 -2.717 -0.38 -5.368 -1.093 -7.828 c 5.348 8.151 6.055 21.596 5.947 33.033 c -0.582 0.65 -0.946 1.479 -1.021 2.357 h -2.06 v 25.1 c 1.672 -0.711 3.322 -1.518 4.936 -2.449 c 2.633 -1.52 5.05 -3.269 7.249 -5.202 V 61.32 h -2.06 C 72.615 60.425 72.242 59.589 71.645 58.936 z M 45 49.138 c -5.307 0 -9.791 -7.043 -9.791 -15.379 S 39.693 18.379 45 18.379 c 5.307 0 9.79 7.043 9.79 15.379 S 50.307 49.138 45 49.138 z" style="stroke: none; stroke-width: 1; stroke-dasharray: none; stroke-linecap: butt; stroke-linejoin: miter; stroke-miterlimit: 10; fill: rgb(0,146,157); fill-rule: nonzero; opacity: 1;" transform=" matrix(1 0 0 1 0 0) " stroke-linecap="round" />
	<path d="M 45 49.138 c -7.604 0 -13.791 -8.693 -13.791 -19.379 S 37.396 10.379 45 10.379 c 7.604 0 13.79 8.693 13.79 19.379 S 52.604 49.138 45 49.138 z M 45 12.379 c -6.501 0 -11.791 7.796 -11.791 17.379 S 38.499 47.138 45 47.138 c 6.501 0 11.79 -7.796 11.79 -17.379 S 51.501 12.379 45 12.379 z" style="stroke: none; stroke-width: 1; stroke-dasharray: none; stroke-linecap: butt; stroke-linejoin: miter; stroke-miterlimit: 10; fill: rgb(237,199,93); fill-rule: nonzero; opacity: 1;" transform=" matrix(1 0 0 1 0 0) " stroke-linecap="round" />
	<path d="M 20.399 58.09 c -0.326 -15.63 0.522 -32.815 9.283 -41.76 c 3.868 -3.949 9.021 -5.951 15.318 -5.951 v 2 c -5.819 0 -10.363 1.75 -13.889 5.351 c -8.242 8.416 -9.029 25.104 -8.711 40.319 L 20.399 58.09 z" style="stroke: none; stroke-width: 1; stroke-dasharray: none; stroke-linecap: butt; stroke-linejoin: miter; stroke-miterlimit: 10; fill: rgb(237,199,93); fill-rule: nonzero; opacity: 1;" transform=" matrix(1 0 0 1 0 0) " stroke-linecap="round" />
	<path d="M 69.601 58.09 l -2 -0.041 c 0.317 -15.215 -0.47 -31.904 -8.711 -40.319 c -3.526 -3.6 -8.07 -5.351 -13.89 -5.351 v -2 c 6.297 0 11.45 2.002 15.318 5.951 C 69.078 25.275 69.926 42.459 69.601 58.09 z" style="stroke: none; stroke-width: 1; stroke-dasharray: none; stroke-linecap: butt; stroke-linejoin: miter; stroke-miterlimit: 10; fill: rgb(237,199,93); fill-rule: nonzero; opacity: 1;" transform=" matrix(1 0 0 1 0 0) " stroke-linecap="round" />
	<path d="M 23.389 60.151 h -4.092 v -2.498 c 0 -1.13 0.916 -2.046 2.046 -2.046 h 0 c 1.13 0 2.046 0.916 2.046 2.046 V 60.151 z" style="stroke: none; stroke-width: 1; stroke-dasharray: none; stroke-linecap: butt; stroke-linejoin: miter; stroke-miterlimit: 10; fill: rgb(226,226,226); fill-rule: nonzero; opacity: 1;" transform=" matrix(1 0 0 1 0 0) " stroke-linecap="round" />
	<path d="M 17.251 80.425 c 2.556 2 5.299 3.71 8.185 5.099 V 59.32 h -8.185 V 80.425 z" style="stroke: none; stroke-width: 1; stroke-dasharray: none; stroke-linecap: butt; stroke-linejoin: miter; stroke-miterlimit: 10; fill: rgb(234,87,87); fill-rule: nonzero; opacity: 1;" transform=" matrix(1 0 0 1 0 0) " stroke-linecap="round" />
	<rect x="17.25" y="59.32" rx="0" ry="0" width="8.19" height="4.54" style="stroke: none; stroke-width: 1; stroke-dasharray: none; stroke-linecap: butt; stroke-linejoin: miter; stroke-miterlimit: 10; fill: rgb(219,83,83); fill-rule: nonzero; opacity: 1;" transform=" matrix(1 0 0 1 0 0) "/>
	<path d="M 70.703 60.151 h -4.092 v -2.498 c 0 -1.13 0.916 -2.046 2.046 -2.046 l 0 0 c 1.13 0 2.046 0.916 2.046 2.046 V 60.151 z" style="stroke: none; stroke-width: 1; stroke-dasharray: none; stroke-linecap: butt; stroke-linejoin: miter; stroke-miterlimit: 10; fill: rgb(226,226,226); fill-rule: nonzero; opacity: 1;" transform=" matrix(1 0 0 1 0 0) " stroke-linecap="round" />
	<rect x="64.56" y="59.32" rx="0" ry="0" width="8.19" height="4.54" style="stroke: none; stroke-width: 1; stroke-dasharray: none; stroke-linecap: butt; stroke-linejoin: miter; stroke-miterlimit: 10; fill: rgb(219,83,83); fill-rule: nonzero; opacity: 1;" transform=" matrix(1 0 0 1 0 0) "/>
	<path d="M 64.564 85.511 c 0.988 -0.478 1.97 -0.982 2.936 -1.54 c 1.859 -1.073 3.605 -2.266 5.249 -3.551 v -21.1 h -8.185 V 85.511 z" style="stroke: none; stroke-width: 1; stroke-dasharray: none; stroke-linecap: butt; stroke-linejoin: miter; stroke-miterlimit: 10; fill: rgb(234,87,87); fill-rule: nonzero; opacity: 1;" transform=" matrix(1 0 0 1 0 0) " stroke-linecap="round" />
</g>
</svg>