<svg xmlns="http://www.w3.org/2000/svg" xmlns:xlink="http://www.w3.org/1999/xlink" version="1.1" width="256" height="256" viewBox="0 0 256 256" xml:space="preserve">

<defs>
</defs>
<g style="stroke: none; stroke-width: 0; stroke-dasharray: none; stroke-linecap: butt; stroke-linejoin: miter; stroke-miterlimit: 10; fill: none; fill-rule: nonzero; opacity: 1;" transform="translate(1.4065934065934016 1.4065934065934016) scale(2.81 2.81)" >
	<circle cx="45" cy="45" r="45" style="stroke: none; stroke-width: 1; stroke-dasharray: none; stroke-linecap: butt; stroke-linejoin: miter; stroke-miterlimit: 10; fill: rgb(0,161,173); fill-rule: nonzero; opacity: 1;" transform="  matrix(1 0 0 1 0 0) "/>
	<path d="M 45 90 c 14.561 0 27.499 -6.922 35.724 -17.648 V 42.506 c 0 -3.298 -1.154 -6.512 -3.251 -9.052 c -0.576 -0.699 -1.225 -1.347 -1.926 -1.927 c -2.202 -1.818 -4.913 -2.927 -7.745 -3.19 v -4.15 c 0 -1.569 -0.776 -3.03 -2.076 -3.909 c -0.781 -0.528 -1.694 -0.807 -2.64 -0.807 h -15.11 c -0.945 0 -1.857 0.279 -2.638 0.807 c -1.302 0.879 -2.078 2.34 -2.078 3.909 v 4.15 c -2.831 0.262 -5.542 1.372 -7.744 3.189 c -0.701 0.578 -1.349 1.227 -1.927 1.927 c -2.096 2.539 -3.25 5.754 -3.25 9.052 v 6.793 c -0.301 -0.078 -0.606 -0.142 -0.914 -0.192 v -2.039 c 0 -0.511 -0.101 -1.008 -0.298 -1.474 c -0.096 -0.226 -0.213 -0.443 -0.35 -0.645 c -0.411 -0.608 -0.986 -1.082 -1.665 -1.37 c -0.468 -0.197 -0.963 -0.297 -1.473 -0.297 h -6.665 c -2.088 0 -3.786 1.698 -3.786 3.786 v 2.039 c -0.789 0.126 -1.558 0.347 -2.294 0.657 c -1.468 0.622 -2.782 1.602 -3.8 2.836 c -1.464 1.774 -2.271 4.021 -2.271 6.327 v 9.886 C 14.772 81.533 28.894 90 45 90 z" style="stroke: none; stroke-width: 1; stroke-dasharray: none; stroke-linecap: butt; stroke-linejoin: miter; stroke-miterlimit: 10; fill: rgb(0,146,157); fill-rule: nonzero; opacity: 1;" transform=" matrix(1 0 0 1 0 0) " stroke-linecap="round" />
	<path d="M 28.445 47.34 H 17.784 c -4.18 0 -7.569 3.389 -7.569 7.569 v 18.639 c 5.585 6.798 13.125 11.924 21.76 14.531 h 4.038 V 54.909 C 36.014 50.729 32.625 47.34 28.445 47.34 z" style="stroke: none; stroke-width: 1; stroke-dasharray: none; stroke-linecap: butt; stroke-linejoin: miter; stroke-miterlimit: 10; fill: rgb(163,226,97); fill-rule: nonzero; opacity: 1;" transform=" matrix(1 0 0 1 0 0) " stroke-linecap="round" />
	<path d="M 35.898 89.078 h 0.116 V 78.215 h -21.37 C 20.513 83.583 27.809 87.417 35.898 89.078 z" style="stroke: none; stroke-width: 1; stroke-dasharray: none; stroke-linecap: butt; stroke-linejoin: miter; stroke-miterlimit: 10; fill: rgb(141,201,78); fill-rule: nonzero; opacity: 1;" transform=" matrix(1 0 0 1 0 0) " stroke-linecap="round" />
	<path d="M 13.702 77.317 V 53.076 c 0 -3.168 2.568 -5.736 5.736 -5.736 h -1.654 c -4.18 0 -7.569 3.389 -7.569 7.569 v 18.639 C 11.304 74.872 12.472 76.126 13.702 77.317 z" style="stroke: none; stroke-width: 1; stroke-dasharray: none; stroke-linecap: butt; stroke-linejoin: miter; stroke-miterlimit: 10; fill: rgb(141,201,78); fill-rule: nonzero; opacity: 1;" transform=" matrix(1 0 0 1 0 0) " stroke-linecap="round" />
	<polygon points="10.22,69.41 36.01,69.41 36.01,69.4 36.01,60.86 36.01,60.86 10.22,60.86 " style="stroke: none; stroke-width: 1; stroke-dasharray: none; stroke-linecap: butt; stroke-linejoin: miter; stroke-miterlimit: 10; fill: rgb(249,249,249); fill-rule: nonzero; opacity: 1;" transform="  matrix(1 0 0 1 0 0) "/>
	<rect x="10.22" y="60.86" rx="0" ry="0" width="3.49" height="8.55" style="stroke: none; stroke-width: 1; stroke-dasharray: none; stroke-linecap: butt; stroke-linejoin: miter; stroke-miterlimit: 10; fill: rgb(226,226,226); fill-rule: nonzero; opacity: 1;" transform=" matrix(1 0 0 1 0 0) "/>
	<path d="M 28.445 47.34 h -1.184 c 4.18 0 7.569 3.389 7.569 7.569 v 33.169 h 1.184 V 54.909 C 36.014 50.729 32.625 47.34 28.445 47.34 z" style="stroke: none; stroke-width: 1; stroke-dasharray: none; stroke-linecap: butt; stroke-linejoin: miter; stroke-miterlimit: 10; fill: rgb(141,201,78); fill-rule: nonzero; opacity: 1;" transform=" matrix(1 0 0 1 0 0) " stroke-linecap="round" />
	<polygon points="34.83,60.86 34.83,69.41 36.01,69.41 36.01,69.4 36.01,60.86 36.01,60.86 " style="stroke: none; stroke-width: 1; stroke-dasharray: none; stroke-linecap: butt; stroke-linejoin: miter; stroke-miterlimit: 10; fill: rgb(226,226,226); fill-rule: nonzero; opacity: 1;" transform="  matrix(1 0 0 1 0 0) "/>
	<path d="M 26.321 41.855 h -6.413 c -0.907 0 -1.643 0.736 -1.643 1.643 v 3.842 h 9.699 v -3.842 C 27.964 42.591 27.229 41.855 26.321 41.855 z" style="stroke: none; stroke-width: 1; stroke-dasharray: none; stroke-linecap: butt; stroke-linejoin: miter; stroke-miterlimit: 10; fill: rgb(249,249,249); fill-rule: nonzero; opacity: 1;" transform=" matrix(1 0 0 1 0 0) " stroke-linecap="round" />
	<path d="M 26.321 41.855 H 25.2 c 0.691 0 1.252 0.56 1.252 1.252 v 2.927 h -6.673 v -2.927 c 0 -0.691 0.56 -1.252 1.252 -1.252 h -1.122 c -0.907 0 -1.643 0.736 -1.643 1.643 v 3.842 h 9.699 v -3.842 C 27.964 42.591 27.229 41.855 26.321 41.855 z" style="stroke: none; stroke-width: 1; stroke-dasharray: none; stroke-linecap: butt; stroke-linejoin: miter; stroke-miterlimit: 10; fill: rgb(221,221,221); fill-rule: nonzero; opacity: 1;" transform=" matrix(1 0 0 1 0 0) " stroke-linecap="round" />
	<path d="M 26.638 65.83 h -9.111 c -0.387 0 -0.7 -0.313 -0.7 -0.7 s 0.313 -0.7 0.7 -0.7 h 9.111 c 0.387 0 0.7 0.313 0.7 0.7 S 27.024 65.83 26.638 65.83 z" style="stroke: none; stroke-width: 1; stroke-dasharray: none; stroke-linecap: butt; stroke-linejoin: miter; stroke-miterlimit: 10; fill: rgb(226,226,226); fill-rule: nonzero; opacity: 1;" transform=" matrix(1 0 0 1 0 0) " stroke-linecap="round" />
	<path d="M 77.329 39.109 c 0 -6.457 -5.234 -11.691 -11.692 -11.691 H 44.536 c -6.457 0 -11.691 5.234 -11.691 11.691 v 49.216 C 36.713 89.408 40.786 90 45 90 c 12.692 0 24.148 -5.262 32.329 -13.714 V 39.109 z" style="stroke: none; stroke-width: 1; stroke-dasharray: none; stroke-linecap: butt; stroke-linejoin: miter; stroke-miterlimit: 10; fill: rgb(52,96,143); fill-rule: nonzero; opacity: 1;" transform=" matrix(1 0 0 1 0 0) " stroke-linecap="round" />
	<path d="M 45 90 c 12.692 0 24.148 -5.262 32.329 -13.714 v -1.176 V 39.108 c 0 -6.457 -5.234 -11.691 -11.691 -11.691 h -1.828 c 6.457 0 11.692 5.234 11.692 11.691 v 36.001 H 38.23 V 36.278 c 0 -4.894 3.967 -8.861 8.861 -8.861 h -2.555 c -6.457 0 -11.691 5.234 -11.691 11.691 v 49.217 C 36.713 89.408 40.786 90 45 90 z" style="stroke: none; stroke-width: 1; stroke-dasharray: none; stroke-linecap: butt; stroke-linejoin: miter; stroke-miterlimit: 10; fill: rgb(48,78,130); fill-rule: nonzero; opacity: 1;" transform=" matrix(1 0 0 1 0 0) " stroke-linecap="round" />
	<polygon points="32.84,66.15 77.32,66.15 77.33,66.15 77.33,45.41 77.32,45.41 32.84,45.41 " style="stroke: none; stroke-width: 1; stroke-dasharray: none; stroke-linecap: butt; stroke-linejoin: miter; stroke-miterlimit: 10; fill: rgb(249,249,249); fill-rule: nonzero; opacity: 1;" transform="  matrix(1 0 0 1 0 0) "/>
	<rect x="32.84" y="45.41" rx="0" ry="0" width="5.38" height="20.74" style="stroke: none; stroke-width: 1; stroke-dasharray: none; stroke-linecap: butt; stroke-linejoin: miter; stroke-miterlimit: 10; fill: rgb(226,226,226); fill-rule: nonzero; opacity: 1;" transform=" matrix(1 0 0 1 0 0) "/>
	<polygon points="75.5,45.41 75.5,66.15 77.32,66.15 77.33,66.15 77.33,45.41 77.32,45.41 " style="stroke: none; stroke-width: 1; stroke-dasharray: none; stroke-linecap: butt; stroke-linejoin: miter; stroke-miterlimit: 10; fill: rgb(226,226,226); fill-rule: nonzero; opacity: 1;" transform="  matrix(1 0 0 1 0 0) "/>
	<path d="M 43.264 60.617 c -0.014 0 -0.028 0 -0.042 -0.001 c -0.304 -0.019 -0.559 -0.235 -0.627 -0.532 l -1.564 -6.834 c -0.085 -0.369 0.146 -0.737 0.515 -0.821 c 0.373 -0.082 0.737 0.147 0.821 0.516 l 1.042 4.552 l 0.921 -2.563 c 0.098 -0.272 0.356 -0.454 0.645 -0.454 l 0 0 c 0.289 0 0.547 0.181 0.645 0.454 l 0.92 2.563 l 1.041 -4.552 c 0.086 -0.37 0.458 -0.596 0.821 -0.516 c 0.37 0.085 0.6 0.453 0.516 0.821 l -1.564 6.834 c -0.068 0.297 -0.323 0.513 -0.627 0.532 c -0.302 0.012 -0.583 -0.166 -0.687 -0.453 l -1.067 -2.97 l -1.068 2.97 C 43.81 60.436 43.551 60.617 43.264 60.617 z" style="stroke: none; stroke-width: 1; stroke-dasharray: none; stroke-linecap: butt; stroke-linejoin: miter; stroke-miterlimit: 10; fill: rgb(48,78,130); fill-rule: nonzero; opacity: 1;" transform=" matrix(1 0 0 1 0 0) " stroke-linecap="round" />
	<path d="M 50.943 60.856 c -0.379 0 -0.686 -0.307 -0.686 -0.686 v -7.314 c 0 -0.379 0.307 -0.686 0.686 -0.686 c 0.379 0 0.686 0.307 0.686 0.686 v 7.314 C 51.629 60.549 51.322 60.856 50.943 60.856 z" style="stroke: none; stroke-width: 1; stroke-dasharray: none; stroke-linecap: butt; stroke-linejoin: miter; stroke-miterlimit: 10; fill: rgb(48,78,130); fill-rule: nonzero; opacity: 1;" transform=" matrix(1 0 0 1 0 0) " stroke-linecap="round" />
	<path d="M 55.379 57.199 h -4.435 c -0.379 0 -0.686 -0.307 -0.686 -0.686 s 0.307 -0.686 0.686 -0.686 h 4.435 c 0.379 0 0.686 0.307 0.686 0.686 S 55.757 57.199 55.379 57.199 z" style="stroke: none; stroke-width: 1; stroke-dasharray: none; stroke-linecap: butt; stroke-linejoin: miter; stroke-miterlimit: 10; fill: rgb(48,78,130); fill-rule: nonzero; opacity: 1;" transform=" matrix(1 0 0 1 0 0) " stroke-linecap="round" />
	<path d="M 55.379 60.856 c -0.379 0 -0.686 -0.307 -0.686 -0.686 v -7.314 c 0 -0.379 0.307 -0.686 0.686 -0.686 s 0.686 0.307 0.686 0.686 v 7.314 C 56.064 60.549 55.757 60.856 55.379 60.856 z" style="stroke: none; stroke-width: 1; stroke-dasharray: none; stroke-linecap: butt; stroke-linejoin: miter; stroke-miterlimit: 10; fill: rgb(48,78,130); fill-rule: nonzero; opacity: 1;" transform=" matrix(1 0 0 1 0 0) " stroke-linecap="round" />
	<path d="M 61.957 60.617 h -3.66 c -0.379 0 -0.686 -0.307 -0.686 -0.686 v -6.834 c 0 -0.379 0.307 -0.686 0.686 -0.686 h 3.66 c 0.379 0 0.686 0.307 0.686 0.686 s -0.307 0.686 -0.686 0.686 h -2.974 v 5.463 h 2.974 c 0.379 0 0.686 0.307 0.686 0.686 C 62.643 60.31 62.335 60.617 61.957 60.617 z" style="stroke: none; stroke-width: 1; stroke-dasharray: none; stroke-linecap: butt; stroke-linejoin: miter; stroke-miterlimit: 10; fill: rgb(48,78,130); fill-rule: nonzero; opacity: 1;" transform=" matrix(1 0 0 1 0 0) " stroke-linecap="round" />
	<path d="M 61.957 57.199 h -3.66 c -0.379 0 -0.686 -0.307 -0.686 -0.686 s 0.307 -0.686 0.686 -0.686 h 3.66 c 0.379 0 0.686 0.307 0.686 0.686 S 62.335 57.199 61.957 57.199 z" style="stroke: none; stroke-width: 1; stroke-dasharray: none; stroke-linecap: butt; stroke-linejoin: miter; stroke-miterlimit: 10; fill: rgb(48,78,130); fill-rule: nonzero; opacity: 1;" transform=" matrix(1 0 0 1 0 0) " stroke-linecap="round" />
	<path d="M 67.457 60.856 c -0.379 0 -0.686 -0.307 -0.686 -0.686 v -3.514 l -2.517 -3.391 c -0.225 -0.304 -0.162 -0.734 0.142 -0.96 c 0.305 -0.225 0.733 -0.162 0.96 0.142 l 2.652 3.573 c 0.087 0.119 0.135 0.262 0.135 0.409 v 3.741 C 68.143 60.549 67.836 60.856 67.457 60.856 z" style="stroke: none; stroke-width: 1; stroke-dasharray: none; stroke-linecap: butt; stroke-linejoin: miter; stroke-miterlimit: 10; fill: rgb(48,78,130); fill-rule: nonzero; opacity: 1;" transform=" matrix(1 0 0 1 0 0) " stroke-linecap="round" />
	<path d="M 67.457 57.115 c -0.142 0 -0.285 -0.044 -0.408 -0.135 c -0.304 -0.226 -0.367 -0.655 -0.142 -0.96 l 2.652 -3.573 c 0.226 -0.304 0.654 -0.367 0.96 -0.142 c 0.304 0.226 0.367 0.655 0.142 0.96 l -2.652 3.573 C 67.873 57.02 67.666 57.115 67.457 57.115 z" style="stroke: none; stroke-width: 1; stroke-dasharray: none; stroke-linecap: butt; stroke-linejoin: miter; stroke-miterlimit: 10; fill: rgb(48,78,130); fill-rule: nonzero; opacity: 1;" transform=" matrix(1 0 0 1 0 0) " stroke-linecap="round" />
	<path d="M 62.357 18.944 h -14.54 c -1.402 0 -2.538 1.136 -2.538 2.538 v 5.935 h 19.617 v -5.935 C 64.895 20.08 63.759 18.944 62.357 18.944 z" style="stroke: none; stroke-width: 1; stroke-dasharray: none; stroke-linecap: butt; stroke-linejoin: miter; stroke-miterlimit: 10; fill: rgb(249,249,249); fill-rule: nonzero; opacity: 1;" transform=" matrix(1 0 0 1 0 0) " stroke-linecap="round" />
	<path d="M 62.357 18.944 h -1.732 c 1.068 0 1.933 0.866 1.933 1.933 v 4.521 H 47.616 v -4.521 c 0 -1.068 0.866 -1.933 1.933 -1.933 h -1.732 c -1.402 0 -2.538 1.136 -2.538 2.538 v 5.935 h 19.617 v -5.935 C 64.895 20.08 63.759 18.944 62.357 18.944 z" style="stroke: none; stroke-width: 1; stroke-dasharray: none; stroke-linecap: butt; stroke-linejoin: miter; stroke-miterlimit: 10; fill: rgb(221,221,221); fill-rule: nonzero; opacity: 1;" transform=" matrix(1 0 0 1 0 0) " stroke-linecap="round" />
</g>
</svg>